<svg id="svg" version="1.1" xmlns="http://www.w3.org/2000/svg" xmlns:xlink="http://www.w3.org/1999/xlink" width="400" height="400" viewBox="0, 0, 400,400"><g id="svgg"><path id="path0" d="M199.853 100.742 C 192.012 103.531,192.286 103.160,191.100 112.642 L 190.285 119.155 191.863 122.278 L 193.440 125.400 207.820 125.849 C 234.447 126.680,243.808 127.578,255.400 130.413 C 260.657 131.698,276.459 133.691,287.200 134.423 C 299.729 135.278,302.271 137.782,303.212 150.200 C 304.340 165.076,303.096 218.583,301.185 237.400 C 299.259 256.367,293.966 264.170,280.600 267.749 C 278.620 268.279,275.441 269.549,273.535 270.571 C 266.716 274.226,258.148 275.701,251.000 274.448 C 240.761 272.654,239.750 271.626,237.768 261.000 C 236.862 256.143,237.662 227.101,239.504 198.000 C 240.191 187.141,240.364 162.957,239.790 158.093 C 239.510 155.724,238.825 155.191,233.767 153.410 L 231.334 152.553 225.000 153.287 C 219.713 153.899,218.335 154.201,216.665 155.110 L 214.664 156.200 213.148 162.000 L 211.632 167.800 211.616 231.032 L 211.600 294.264 213.758 296.648 C 214.945 297.960,216.610 299.493,217.458 300.055 L 219.000 301.077 226.200 300.562 C 237.924 299.723,252.202 298.855,265.000 298.203 C 296.464 296.600,300.562 295.762,307.502 289.513 C 309.860 287.389,312.391 285.845,315.925 284.374 C 317.581 283.684,319.253 282.733,319.639 282.260 C 320.359 281.380,322.216 272.544,323.393 264.400 C 324.786 254.765,326.796 248.056,329.924 242.600 C 334.009 235.473,335.682 214.141,335.759 168.200 C 335.816 133.600,335.174 128.649,330.304 126.158 C 327.903 124.929,326.168 123.276,325.027 121.129 C 322.889 117.108,319.917 114.545,316.009 113.353 C 311.595 112.007,310.307 111.322,307.411 108.781 C 302.202 104.211,298.792 103.735,250.026 100.776 C 235.631 99.903,221.141 99.097,217.826 98.986 C 214.512 98.874,210.540 98.716,209.000 98.634 C 206.423 98.497,205.694 98.665,199.853 100.742 M130.000 102.604 C 112.441 103.821,105.482 105.027,100.800 107.665 C 95.258 110.788,86.669 113.001,75.400 114.210 C 68.544 114.946,68.019 115.104,65.704 117.130 L 64.009 118.614 64.393 150.007 C 64.604 167.273,64.979 206.669,65.227 237.553 L 65.678 293.707 67.100 297.103 L 68.522 300.499 75.161 300.285 C 81.932 300.067,93.012 297.498,94.092 295.896 C 94.276 295.623,94.622 295.058,94.860 294.639 C 95.290 293.884,95.983 275.801,96.754 245.200 C 97.208 227.176,97.585 225.921,103.383 223.120 L 105.800 221.953 125.000 222.210 L 144.200 222.468 147.845 220.674 L 151.491 218.880 151.858 212.540 C 152.243 205.880,151.841 201.961,150.153 195.946 L 149.495 193.603 146.648 192.745 L 143.800 191.888 129.400 192.580 C 121.480 192.961,112.954 193.392,110.454 193.539 C 103.185 193.967,99.439 191.294,97.193 184.076 C 95.591 178.928,95.103 144.840,96.591 142.000 C 99.128 137.156,103.485 134.802,109.915 134.798 C 122.508 134.791,147.753 132.173,153.400 130.288 C 156.601 129.219,157.076 128.569,159.025 122.600 C 160.824 117.087,160.040 106.644,157.575 103.291 L 156.331 101.600 149.665 101.651 C 145.999 101.680,137.150 102.108,130.000 102.604 " stroke="none" fill="#050d14" fill-rule="evenodd"></path><path id="path1" d="M0.000 200.000 L 0.000 400.000 200.000 400.000 L 400.000 400.000 400.000 200.000 L 400.000 0.000 200.000 0.000 L 0.000 0.000 0.000 200.000 M261.200 83.192 C 275.532 84.206,279.789 85.692,285.365 91.632 L 287.511 93.917 291.655 94.137 C 293.935 94.258,300.390 94.543,306.000 94.770 C 323.797 95.491,327.237 96.938,328.832 104.376 C 329.315 106.629,330.444 107.711,332.800 108.178 C 338.735 109.356,340.449 111.037,341.795 116.994 C 342.094 118.317,342.621 120.390,342.965 121.600 C 343.309 122.810,343.593 124.193,343.595 124.673 C 343.598 125.153,343.915 125.652,344.300 125.783 C 346.025 126.365,350.677 131.915,352.059 135.039 C 354.075 139.597,354.201 141.416,354.189 165.800 C 354.170 204.397,352.873 211.842,345.408 216.216 L 343.695 217.220 343.432 222.110 C 343.287 224.800,342.995 234.200,342.783 243.000 C 342.134 269.876,340.762 274.792,333.153 277.494 C 330.994 278.261,330.403 279.586,330.397 283.677 C 330.393 286.764,329.675 290.762,328.796 292.600 C 328.375 293.480,327.750 294.998,327.407 295.973 C 325.173 302.328,318.415 304.894,302.600 305.391 C 298.640 305.515,293.620 305.724,291.445 305.856 L 287.490 306.094 285.445 308.297 C 278.341 315.948,272.971 316.895,233.600 317.442 C 200.237 317.906,197.353 317.069,195.556 306.400 C 194.922 302.639,194.549 168.893,195.146 159.406 C 195.949 146.621,197.059 145.772,214.537 144.582 C 228.618 143.622,225.280 142.801,207.280 142.797 C 189.687 142.793,185.098 142.122,182.360 139.157 C 180.916 137.592,180.916 137.592,179.502 138.183 C 178.724 138.508,176.133 139.156,173.744 139.623 C 171.355 140.090,168.481 140.804,167.357 141.209 C 163.857 142.472,159.595 142.751,140.200 142.989 C 129.860 143.117,120.049 143.321,118.399 143.443 L 115.397 143.666 114.096 145.632 C 112.691 147.755,110.414 149.603,107.750 150.781 L 106.076 151.522 105.816 154.461 C 105.673 156.077,105.611 162.890,105.678 169.600 L 105.800 181.800 132.200 182.054 C 170.758 182.425,167.400 180.102,167.400 206.400 C 167.400 227.571,167.030 229.246,162.025 230.745 C 160.978 231.059,159.807 231.856,158.879 232.887 C 153.454 238.909,135.713 238.698,124.677 232.480 C 122.809 231.428,106.370 230.009,105.928 230.861 C 105.889 230.938,105.740 246.930,105.598 266.400 C 105.221 317.917,105.802 316.236,88.000 317.263 C 79.066 317.779,65.110 317.520,63.200 316.803 C 57.393 314.624,57.299 314.062,56.787 278.549 L 56.395 251.299 55.242 248.749 C 53.687 245.312,52.562 241.372,51.831 236.800 C 50.315 227.318,49.997 225.187,49.624 222.000 C 46.898 198.752,44.775 119.886,46.737 114.800 C 48.105 111.257,49.927 109.710,53.840 108.772 C 57.762 107.831,60.264 106.363,60.961 104.595 C 64.033 96.800,71.022 95.264,107.200 94.437 C 124.183 94.048,123.036 94.238,124.507 91.577 C 127.604 85.975,136.443 83.313,152.410 83.174 C 164.547 83.069,166.728 85.588,168.017 101.200 C 168.663 109.016,168.567 108.706,170.509 109.229 C 174.442 110.288,178.074 112.837,180.023 115.905 L 181.107 117.609 181.347 115.505 C 181.480 114.347,181.787 109.260,182.030 104.200 C 182.884 86.426,184.154 83.904,192.800 82.823 C 196.797 82.323,253.215 82.627,261.200 83.192 M254.349 143.245 L 252.898 143.656 253.620 145.556 C 255.221 149.769,255.282 152.164,255.138 205.239 C 255.029 245.768,255.104 256.402,255.503 256.883 C 256.102 257.605,279.928 257.473,281.437 256.739 C 282.237 256.350,282.286 255.938,282.532 247.466 C 283.218 223.841,285.660 213.529,291.498 209.609 C 294.344 207.697,294.188 209.446,294.194 179.400 C 294.200 151.564,294.154 150.630,292.741 150.181 C 291.494 149.786,288.523 146.927,287.540 145.178 C 286.721 143.721,286.603 143.663,284.046 143.443 C 278.661 142.982,255.815 142.829,254.349 143.245 " stroke="none" fill="#249cec" fill-rule="evenodd"></path><path id="path2" d="M204.200 92.254 C 193.762 95.153,192.731 95.839,189.980 101.717 C 185.578 111.124,186.768 125.605,192.386 130.987 L 193.531 132.083 205.465 132.421 C 218.611 132.792,217.998 132.748,233.646 134.427 C 242.184 135.342,246.227 135.591,251.446 135.522 C 257.551 135.441,275.392 136.636,288.600 138.011 C 290.580 138.217,292.580 138.389,293.045 138.393 C 294.053 138.401,296.417 140.208,297.958 142.147 C 300.220 144.993,300.981 164.281,300.005 194.000 C 299.114 221.136,297.473 235.840,294.344 244.737 C 293.675 246.641,292.540 250.090,291.823 252.400 C 289.734 259.134,285.283 262.980,278.151 264.215 C 272.851 265.133,265.980 266.714,260.720 268.225 L 256.039 269.570 253.720 268.777 C 247.473 266.640,243.258 261.584,242.901 255.800 C 242.806 254.260,243.191 246.250,243.758 238.000 C 246.166 202.932,246.951 183.934,246.620 168.802 C 246.365 157.175,246.282 156.103,245.543 154.908 C 241.296 148.037,221.382 147.358,211.474 153.746 C 208.527 155.646,208.285 156.032,206.554 161.600 L 205.000 166.600 204.895 230.272 C 204.776 302.735,204.443 295.858,208.292 300.501 C 214.745 308.284,215.498 308.394,240.400 305.200 C 246.630 304.401,269.749 301.931,285.400 300.392 C 294.876 299.460,299.637 298.734,303.997 297.558 C 307.019 296.742,307.753 296.281,313.200 291.772 C 314.410 290.770,316.217 289.528,317.216 289.011 C 321.714 286.684,323.623 283.408,325.395 274.976 C 327.476 265.074,328.493 261.537,330.750 256.353 C 335.413 245.643,336.337 239.848,338.782 206.000 C 341.254 171.765,341.463 151.362,339.459 139.800 C 338.925 136.720,338.373 133.390,338.232 132.400 C 337.821 129.506,335.342 125.481,331.400 121.310 C 323.254 112.692,321.797 111.342,319.000 109.820 C 317.460 108.982,314.490 107.183,312.400 105.821 C 306.170 101.763,305.079 101.521,283.400 99.387 C 277.680 98.824,264.090 97.278,253.200 95.950 C 225.792 92.609,207.806 91.253,204.200 92.254 M148.800 97.013 C 145.170 97.293,141.030 97.713,139.600 97.946 C 138.170 98.180,131.960 98.834,125.800 99.401 C 105.918 101.230,97.646 102.572,90.800 105.077 C 81.282 108.559,76.648 109.890,70.200 110.994 C 65.493 111.799,59.599 116.957,59.601 120.270 C 59.601 121.332,59.867 134.080,60.191 148.600 C 61.041 186.664,61.518 214.845,62.018 256.400 C 62.496 296.168,62.453 295.494,64.838 301.287 C 65.833 303.705,68.164 307.600,68.616 307.600 C 72.756 307.600,81.901 306.091,87.200 304.533 C 94.508 302.385,95.265 301.837,97.597 297.000 L 99.139 293.800 99.719 262.465 L 100.298 231.130 101.459 229.478 C 102.098 228.569,103.419 227.216,104.396 226.471 L 106.172 225.117 114.986 225.362 C 119.834 225.497,128.660 225.650,134.600 225.702 L 145.400 225.797 148.600 224.655 C 153.180 223.019,156.219 221.312,157.469 219.675 L 158.554 218.252 158.577 206.148 L 158.600 194.045 157.253 192.655 C 153.325 188.601,134.960 187.377,108.939 189.435 L 106.078 189.661 103.939 187.515 C 99.812 183.376,99.714 182.960,99.429 168.373 C 98.993 146.061,99.503 142.961,104.122 139.881 L 106.200 138.495 124.000 137.427 C 154.378 135.604,156.323 135.353,159.499 132.842 C 164.131 129.181,165.201 110.658,161.233 102.849 C 159.904 100.234,156.641 96.359,155.845 96.452 C 155.600 96.481,152.430 96.733,148.800 97.013 M217.826 98.986 C 221.141 99.097,235.631 99.903,250.026 100.776 C 298.792 103.735,302.202 104.211,307.411 108.781 C 310.307 111.322,311.595 112.007,316.009 113.353 C 319.917 114.545,322.889 117.108,325.027 121.129 C 326.168 123.276,327.903 124.929,330.304 126.158 C 335.174 128.649,335.816 133.600,335.759 168.200 C 335.682 214.141,334.009 235.473,329.924 242.600 C 326.796 248.056,324.786 254.765,323.393 264.400 C 322.216 272.544,320.359 281.380,319.639 282.260 C 319.253 282.733,317.581 283.684,315.925 284.374 C 312.391 285.845,309.860 287.389,307.502 289.513 C 300.562 295.762,296.464 296.600,265.000 298.203 C 252.202 298.855,237.924 299.723,226.200 300.562 L 219.000 301.077 217.458 300.055 C 216.610 299.493,214.945 297.960,213.758 296.648 L 211.600 294.264 211.616 231.032 L 211.632 167.800 213.148 162.000 L 214.664 156.200 216.665 155.110 C 218.335 154.201,219.713 153.899,225.000 153.287 L 231.334 152.553 233.767 153.410 C 238.825 155.191,239.510 155.724,239.790 158.093 C 240.364 162.957,240.191 187.141,239.504 198.000 C 237.662 227.101,236.862 256.143,237.768 261.000 C 239.750 271.626,240.761 272.654,251.000 274.448 C 258.148 275.701,266.716 274.226,273.535 270.571 C 275.441 269.549,278.620 268.279,280.600 267.749 C 293.966 264.170,299.259 256.367,301.185 237.400 C 303.096 218.583,304.340 165.076,303.212 150.200 C 302.271 137.782,299.729 135.278,287.200 134.423 C 276.459 133.691,260.657 131.698,255.400 130.413 C 243.808 127.578,234.447 126.680,207.820 125.849 L 193.440 125.400 191.863 122.278 L 190.285 119.155 191.100 112.642 C 192.286 103.160,192.012 103.531,199.853 100.742 C 205.694 98.665,206.423 98.497,209.000 98.634 C 210.540 98.716,214.512 98.874,217.826 98.986 M157.575 103.291 C 160.040 106.644,160.824 117.087,159.025 122.600 C 157.076 128.569,156.601 129.219,153.400 130.288 C 147.753 132.173,122.508 134.791,109.915 134.798 C 103.485 134.802,99.128 137.156,96.591 142.000 C 95.103 144.840,95.591 178.928,97.193 184.076 C 99.439 191.294,103.185 193.967,110.454 193.539 C 112.954 193.392,121.480 192.961,129.400 192.580 L 143.800 191.888 146.648 192.745 L 149.495 193.603 150.153 195.946 C 151.841 201.961,152.243 205.880,151.858 212.540 L 151.491 218.880 147.845 220.674 L 144.200 222.468 125.000 222.210 L 105.800 221.953 103.383 223.120 C 97.585 225.921,97.208 227.176,96.754 245.200 C 95.983 275.801,95.290 293.884,94.860 294.639 C 94.622 295.058,94.276 295.623,94.092 295.896 C 93.012 297.498,81.932 300.067,75.161 300.285 L 68.522 300.499 67.100 297.103 L 65.678 293.707 65.227 237.553 C 64.979 206.669,64.604 167.273,64.393 150.007 L 64.009 118.614 65.704 117.130 C 68.019 115.104,68.544 114.946,75.400 114.210 C 86.669 113.001,95.258 110.788,100.800 107.665 C 106.503 104.452,127.896 101.819,149.665 101.651 L 156.331 101.600 157.575 103.291 " stroke="none" fill="#0c4469" fill-rule="evenodd"></path><path id="path3" d="M199.800 87.605 C 193.812 88.698,193.207 88.940,191.042 91.106 C 187.268 94.879,185.504 100.315,184.520 111.200 C 183.192 125.896,184.933 132.733,190.916 136.326 L 193.125 137.652 207.262 137.997 C 219.602 138.298,222.112 138.469,227.000 139.342 C 236.463 141.032,243.398 141.728,245.575 141.206 C 253.829 139.226,266.791 139.161,286.800 141.000 C 297.574 141.990,297.024 139.935,296.958 179.000 C 296.899 213.077,295.796 225.117,291.984 233.251 C 289.827 237.857,287.667 245.683,286.680 252.477 C 285.977 257.310,282.920 260.399,278.837 260.401 C 276.717 260.401,263.967 261.914,259.732 262.666 L 256.065 263.318 254.439 262.031 C 251.009 259.314,248.870 256.482,249.030 254.868 C 249.110 254.060,249.370 248.090,249.607 241.600 C 249.844 235.110,250.215 225.030,250.432 219.200 C 250.648 213.370,250.936 196.900,251.070 182.600 L 251.314 156.600 250.303 154.099 C 246.899 145.679,242.033 144.282,224.155 146.593 C 206.668 148.854,202.282 151.557,200.550 161.138 L 199.635 166.200 199.617 230.624 L 199.600 295.048 200.452 298.424 C 202.729 307.453,205.427 310.041,214.735 312.129 C 222.973 313.977,250.527 311.266,262.800 307.400 C 267.930 305.784,277.309 304.345,291.456 303.002 C 309.694 301.271,312.370 300.418,316.281 295.090 C 317.247 293.774,318.424 292.796,319.995 292.002 C 324.906 289.523,326.261 286.951,328.876 275.139 C 330.340 268.526,330.773 267.159,331.895 265.609 C 337.782 257.476,338.721 253.233,340.393 227.200 C 340.824 220.490,341.528 211.850,341.958 208.000 C 342.387 204.150,342.951 198.840,343.209 196.200 C 343.468 193.560,344.123 189.349,344.664 186.843 C 347.435 174.019,347.141 146.098,344.201 142.800 C 343.906 142.470,343.009 139.071,342.207 135.247 C 339.954 124.504,339.420 123.395,333.391 116.913 C 327.574 110.661,326.082 109.286,323.416 107.724 C 322.098 106.952,319.964 105.342,318.674 104.147 C 314.506 100.289,309.255 98.336,301.600 97.800 C 283.826 96.554,269.516 94.609,264.664 92.781 C 252.833 88.322,213.200 85.160,199.800 87.605 M150.000 91.407 C 147.250 91.926,144.100 92.715,143.000 93.162 C 139.238 94.690,126.902 96.434,114.400 97.206 C 92.330 98.567,82.647 100.504,76.321 104.822 C 74.632 105.975,72.810 106.727,69.582 107.605 C 63.001 109.394,58.951 111.802,57.367 114.865 C 57.047 115.483,56.216 116.637,55.520 117.429 L 54.256 118.870 54.751 126.935 C 55.024 131.371,55.494 137.610,55.796 140.800 C 56.679 150.130,58.470 218.609,59.412 279.000 C 59.778 302.525,60.911 307.671,66.612 311.700 L 68.200 312.822 74.600 312.571 C 92.127 311.885,98.573 308.308,101.586 297.599 C 102.382 294.771,102.991 270.417,103.187 233.660 C 103.199 231.292,103.296 231.024,104.620 229.700 L 106.040 228.280 122.320 228.640 C 153.451 229.328,157.660 228.559,161.977 221.392 L 163.355 219.106 163.528 206.575 L 163.702 194.044 162.673 192.289 C 158.510 185.184,152.199 184.290,114.347 185.439 L 106.094 185.690 104.447 183.509 L 102.800 181.327 102.812 167.364 C 102.826 152.139,103.396 144.530,104.625 143.173 C 106.006 141.646,110.742 141.093,128.400 140.398 C 151.933 139.470,156.463 139.165,158.601 138.365 C 161.709 137.202,164.218 135.440,165.729 133.358 L 167.095 131.475 167.306 125.438 C 167.624 116.331,165.575 102.755,163.155 97.935 C 162.131 95.896,156.708 90.392,155.762 90.433 C 155.343 90.451,152.750 90.889,150.000 91.407 M227.400 92.969 C 230.700 93.281,242.310 94.623,253.200 95.950 C 264.090 97.278,277.680 98.824,283.400 99.387 C 305.079 101.521,306.170 101.763,312.400 105.821 C 314.490 107.183,317.460 108.982,319.000 109.820 C 325.593 113.407,337.525 127.415,338.232 132.400 C 338.373 133.390,338.925 136.720,339.459 139.800 C 341.463 151.362,341.254 171.765,338.782 206.000 C 336.337 239.848,335.413 245.643,330.750 256.353 C 328.493 261.537,327.476 265.074,325.395 274.976 C 323.623 283.408,321.714 286.684,317.216 289.011 C 316.217 289.528,314.410 290.770,313.200 291.772 C 307.753 296.281,307.019 296.742,303.997 297.558 C 299.637 298.734,294.876 299.460,285.400 300.392 C 269.749 301.931,246.630 304.401,240.400 305.200 C 215.498 308.394,214.745 308.284,208.292 300.501 C 204.443 295.858,204.776 302.735,204.895 230.272 L 205.000 166.600 206.554 161.600 C 208.285 156.032,208.527 155.646,211.474 153.746 C 221.382 147.358,241.296 148.037,245.543 154.908 C 246.282 156.103,246.365 157.175,246.620 168.802 C 246.951 183.934,246.166 202.932,243.758 238.000 C 243.191 246.250,242.806 254.260,242.901 255.800 C 243.258 261.584,247.473 266.640,253.720 268.777 L 256.039 269.570 260.720 268.225 C 265.980 266.714,272.851 265.133,278.151 264.215 C 285.283 262.980,289.734 259.134,291.823 252.400 C 292.540 250.090,293.675 246.641,294.344 244.737 C 297.473 235.840,299.114 221.136,300.005 194.000 C 300.981 164.281,300.220 144.993,297.958 142.147 C 296.417 140.208,294.053 138.401,293.045 138.393 C 292.580 138.389,290.580 138.217,288.600 138.011 C 275.392 136.636,257.551 135.441,251.446 135.522 C 246.227 135.591,242.184 135.342,233.646 134.427 C 217.998 132.748,218.611 132.792,205.465 132.421 L 193.531 132.083 192.386 130.987 C 186.768 125.605,185.578 111.124,189.980 101.717 C 192.731 95.839,193.762 95.153,204.200 92.254 C 205.528 91.885,220.988 92.362,227.400 92.969 M158.114 98.349 C 163.518 104.127,165.204 115.919,162.316 127.750 C 160.502 135.181,160.214 135.254,124.000 137.427 L 106.200 138.495 104.122 139.881 C 99.503 142.961,98.993 146.061,99.429 168.373 C 99.714 182.960,99.812 183.376,103.939 187.515 L 106.078 189.661 108.939 189.435 C 134.960 187.377,153.325 188.601,157.253 192.655 L 158.600 194.045 158.577 206.148 L 158.554 218.252 157.469 219.675 C 156.219 221.312,153.180 223.019,148.600 224.655 L 145.400 225.797 134.600 225.702 C 128.660 225.650,119.834 225.497,114.986 225.362 L 106.172 225.117 104.396 226.471 C 103.419 227.216,102.098 228.569,101.459 229.478 L 100.298 231.130 99.719 262.465 L 99.139 293.800 97.597 297.000 C 95.265 301.837,94.508 302.385,87.200 304.533 C 81.901 306.091,72.756 307.600,68.616 307.600 C 68.164 307.600,65.833 303.705,64.838 301.287 C 62.453 295.494,62.496 296.168,62.018 256.400 C 61.518 214.845,61.041 186.664,60.191 148.600 C 59.867 134.080,59.601 121.332,59.601 120.270 C 59.599 116.957,65.493 111.799,70.200 110.994 C 76.648 109.890,81.282 108.559,90.800 105.077 C 97.646 102.572,105.918 101.230,125.800 99.401 C 131.960 98.834,138.170 98.180,139.600 97.946 C 141.030 97.713,145.170 97.293,148.800 97.013 C 152.430 96.733,155.600 96.481,155.845 96.452 C 156.090 96.423,157.111 97.277,158.114 98.349 " stroke="none" fill="#145c8c" fill-rule="evenodd"></path><path id="path4" d="M192.800 82.823 C 184.154 83.904,182.884 86.426,182.030 104.200 C 181.787 109.260,181.480 114.347,181.347 115.505 L 181.107 117.609 180.023 115.905 C 178.074 112.837,174.442 110.288,170.509 109.229 C 168.567 108.706,168.663 109.016,168.017 101.200 C 166.728 85.588,164.547 83.069,152.410 83.174 C 136.443 83.313,127.604 85.975,124.507 91.577 C 123.036 94.238,124.183 94.048,107.200 94.437 C 71.022 95.264,64.033 96.800,60.961 104.595 C 60.264 106.363,57.762 107.831,53.840 108.772 C 49.927 109.710,48.105 111.257,46.737 114.800 C 44.775 119.886,46.898 198.752,49.624 222.000 C 49.997 225.187,50.315 227.318,51.831 236.800 C 52.562 241.372,53.687 245.312,55.242 248.749 L 56.395 251.299 56.787 278.549 C 57.299 314.062,57.393 314.624,63.200 316.803 C 65.110 317.520,79.066 317.779,88.000 317.263 C 105.802 316.236,105.221 317.917,105.598 266.400 C 105.740 246.930,105.889 230.938,105.928 230.861 C 106.370 230.009,122.809 231.428,124.677 232.480 C 135.713 238.698,153.454 238.909,158.879 232.887 C 159.807 231.856,160.978 231.059,162.025 230.745 C 167.030 229.246,167.400 227.571,167.400 206.400 C 167.400 180.102,170.758 182.425,132.200 182.054 L 105.800 181.800 105.678 169.600 C 105.611 162.890,105.673 156.077,105.816 154.461 L 106.076 151.522 107.750 150.781 C 110.414 149.603,112.691 147.755,114.096 145.632 L 115.397 143.666 118.399 143.443 C 120.049 143.321,129.860 143.117,140.200 142.989 C 159.595 142.751,163.857 142.472,167.357 141.209 C 168.481 140.804,171.355 140.090,173.744 139.623 C 176.133 139.156,178.724 138.508,179.502 138.183 C 180.916 137.592,180.916 137.592,182.360 139.157 C 185.098 142.122,189.687 142.793,207.280 142.797 C 225.280 142.801,228.618 143.622,214.537 144.582 C 197.059 145.772,195.949 146.621,195.146 159.406 C 194.549 168.893,194.922 302.639,195.556 306.400 C 197.353 317.069,200.237 317.906,233.600 317.442 C 272.971 316.895,278.341 315.948,285.445 308.297 L 287.490 306.094 291.445 305.856 C 293.620 305.724,298.640 305.515,302.600 305.391 C 318.415 304.894,325.173 302.328,327.407 295.973 C 327.750 294.998,328.375 293.480,328.796 292.600 C 329.675 290.762,330.393 286.764,330.397 283.677 C 330.403 279.586,330.994 278.261,333.153 277.494 C 340.762 274.792,342.134 269.876,342.783 243.000 C 342.995 234.200,343.287 224.800,343.432 222.110 L 343.695 217.220 345.408 216.216 C 352.873 211.842,354.170 204.397,354.189 165.800 C 354.201 141.416,354.075 139.597,352.059 135.039 C 350.677 131.915,346.025 126.365,344.300 125.783 C 343.915 125.652,343.598 125.153,343.595 124.673 C 343.593 124.193,343.309 122.810,342.965 121.600 C 342.621 120.390,342.094 118.317,341.795 116.994 C 340.449 111.037,338.735 109.356,332.800 108.178 C 330.444 107.711,329.315 106.629,328.832 104.376 C 327.237 96.938,323.797 95.491,306.000 94.770 C 300.390 94.543,293.935 94.258,291.655 94.137 L 287.511 93.917 285.365 91.632 C 279.789 85.692,275.532 84.206,261.200 83.192 C 253.215 82.627,196.797 82.323,192.800 82.823 M234.800 87.791 C 249.191 88.727,257.665 90.143,264.664 92.781 C 269.516 94.609,283.826 96.554,301.600 97.800 C 309.255 98.336,314.506 100.289,318.674 104.147 C 319.964 105.342,322.098 106.952,323.416 107.724 C 326.082 109.286,327.574 110.661,333.391 116.913 C 339.420 123.395,339.954 124.504,342.207 135.247 C 343.009 139.071,343.906 142.470,344.201 142.800 C 347.141 146.098,347.435 174.019,344.664 186.843 C 344.123 189.349,343.468 193.560,343.209 196.200 C 342.951 198.840,342.387 204.150,341.958 208.000 C 341.528 211.850,340.824 220.490,340.393 227.200 C 338.721 253.233,337.782 257.476,331.895 265.609 C 330.773 267.159,330.340 268.526,328.876 275.139 C 326.261 286.951,324.906 289.523,319.995 292.002 C 318.424 292.796,317.247 293.774,316.281 295.090 C 312.370 300.418,309.694 301.271,291.456 303.002 C 277.309 304.345,267.930 305.784,262.800 307.400 C 250.527 311.266,222.973 313.977,214.735 312.129 C 205.427 310.041,202.729 307.453,200.452 298.424 L 199.600 295.048 199.617 230.624 L 199.635 166.200 200.550 161.138 C 202.282 151.557,206.668 148.854,224.155 146.593 C 242.033 144.282,246.899 145.679,250.303 154.099 L 251.314 156.600 251.070 182.600 C 250.936 196.900,250.648 213.370,250.432 219.200 C 250.215 225.030,249.844 235.110,249.607 241.600 C 249.370 248.090,249.110 254.060,249.030 254.868 C 248.870 256.482,251.009 259.314,254.439 262.031 L 256.065 263.318 259.732 262.666 C 263.967 261.914,276.717 260.401,278.837 260.401 C 282.920 260.399,285.977 257.310,286.680 252.477 C 287.667 245.683,289.827 237.857,291.984 233.251 C 295.796 225.117,296.899 213.077,296.958 179.000 C 297.024 139.935,297.574 141.990,286.800 141.000 C 266.791 139.161,253.829 139.226,245.575 141.206 C 243.398 141.728,236.463 141.032,227.000 139.342 C 222.112 138.469,219.602 138.298,207.262 137.997 L 193.125 137.652 190.916 136.326 C 184.933 132.733,183.192 125.896,184.520 111.200 C 185.504 100.315,187.268 94.879,191.042 91.106 C 195.323 86.824,206.690 85.963,234.800 87.791 M159.472 93.435 C 164.015 98.113,164.677 99.839,166.355 111.400 C 167.370 118.391,167.490 120.162,167.306 125.438 L 167.095 131.475 165.729 133.358 C 164.218 135.440,161.709 137.202,158.601 138.365 C 156.463 139.165,151.933 139.470,128.400 140.398 C 110.742 141.093,106.006 141.646,104.625 143.173 C 103.396 144.530,102.826 152.139,102.812 167.364 L 102.800 181.327 104.447 183.509 L 106.094 185.690 114.347 185.439 C 152.199 184.290,158.510 185.184,162.673 192.289 L 163.702 194.044 163.528 206.575 L 163.355 219.106 161.977 221.392 C 157.660 228.559,153.451 229.328,122.320 228.640 L 106.040 228.280 104.620 229.700 C 103.296 231.024,103.199 231.292,103.187 233.660 C 102.991 270.417,102.382 294.771,101.586 297.599 C 98.573 308.308,92.127 311.885,74.600 312.571 L 68.200 312.822 66.612 311.700 C 60.911 307.671,59.778 302.525,59.412 279.000 C 58.470 218.609,56.679 150.130,55.796 140.800 C 55.494 137.610,55.024 131.371,54.751 126.935 L 54.256 118.870 55.520 117.429 C 56.216 116.637,57.047 115.483,57.367 114.865 C 58.951 111.802,63.001 109.394,69.582 107.605 C 72.810 106.727,74.632 105.975,76.321 104.822 C 82.647 100.504,92.330 98.567,114.400 97.206 C 126.902 96.434,139.238 94.690,143.000 93.162 C 144.775 92.441,153.765 90.518,155.762 90.433 C 156.212 90.413,157.731 91.643,159.472 93.435 M284.046 143.443 C 286.603 143.663,286.721 143.721,287.540 145.178 C 288.523 146.927,291.494 149.786,292.741 150.181 C 294.154 150.630,294.200 151.564,294.194 179.400 C 294.188 209.446,294.344 207.697,291.498 209.609 C 285.660 213.529,283.218 223.841,282.532 247.466 C 282.286 255.938,282.237 256.350,281.437 256.739 C 279.928 257.473,256.102 257.605,255.503 256.883 C 255.104 256.402,255.029 245.768,255.138 205.239 C 255.282 152.164,255.221 149.769,253.620 145.556 L 252.898 143.656 254.349 143.245 C 255.815 142.829,278.661 142.982,284.046 143.443 " stroke="none" fill="#1c8cd8" fill-rule="evenodd"></path></g></svg>